{
  "accessors": [
    {
      "bufferView": 2,
      "componentType": 5126,
      "count": 25283,
      "max": [
        0.016766000539064407,
        0.01191600039601326,
        0.07751300185918808
      ],
      "min": [
        -0.018192000687122345,
        -0.01155299972742796,
        0.003911999985575676
      ],
      "type": "VEC3"
    },
    {
      "bufferView": 2,
      "byteOffset": 303396,
      "componentType": 5126,
      "count": 25283,
      "max": [
        0.999966025352478,
        0.9999264478683472,
        0.9999227523803711
      ],
      "min": [
        -0.999882698059082,
        -0.9999915361404419,
        -0.9999150037765503
      ],
      "type": "VEC3"
    },
    {
      "bufferView": 1,
      "componentType": 5126,
      "count": 25283,
      "max": [
        0.9990249872207642,
        0.9996749758720398
      ],
      "min": [
        0.00032500000088475645,
        0.006637999787926674
      ],
      "type": "VEC2"
    },
    {
      "bufferView": 0,
      "componentType": 5125,
      "count": 133734,
      "type": "SCALAR"
    }
  ],
  "asset": {
    "extras": {
      "author": "Second Studio (https://sketchfab.com/kayaaku)",
      "license": "CC-BY-4.0 (http://creativecommons.org/licenses/by/4.0/)",
      "source": "https://sketchfab.com/3d-models/dry-flower-d565e8b73f35430a882789ed9c434299",
      "title": "Dry flower"
    },
    "generator": "Sketchfab-13.74.0",
    "version": "2.0"
  },
  "bufferViews": [
    {
      "buffer": 0,
      "byteLength": 534936,
      "name": "floatBufferViews",
      "target": 34963
    },
    {
      "buffer": 0,
      "byteLength": 202264,
      "byteOffset": 534936,
      "byteStride": 8,
      "name": "floatBufferViews",
      "target": 34962
    },
    {
      "buffer": 0,
      "byteLength": 606792,
      "byteOffset": 737200,
      "byteStride": 12,
      "name": "floatBufferViews",
      "target": 34962
    }
  ],
  "buffers": [
    {
      "byteLength": 1343992,
      "uri": "scene.bin"
    }
  ],
  "images": [
    {
      "uri": "textures/ddryflower_u1_v1_baseColor.jpeg"
    }
  ],
  "materials": [
    {
      "doubleSided": true,
      "name": "ddryflower_u1_v1",
      "pbrMetallicRoughness": {
        "baseColorTexture": {
          "index": 0
        },
        "metallicFactor": 0.0
      }
    }
  ],
  "meshes": [
    {
      "name": "Object_0",
      "primitives": [
        {
          "attributes": {
            "NORMAL": 1,
            "POSITION": 0,
            "TEXCOORD_0": 2
          },
          "indices": 3,
          "material": 0,
          "mode": 4
        }
      ]
    }
  ],
  "nodes": [
    {
      "children": [
        1
      ],
      "matrix": [
        1.0,
        0.0,
        0.0,
        0.0,
        0.0,
        2.220446049250313e-16,
        -1.0,
        0.0,
        0.0,
        1.0,
        2.220446049250313e-16,
        0.0,
        0.0,
        0.0,
        0.0,
        1.0
      ],
      "name": "Sketchfab_model"
    },
    {
      "children": [
        2
      ],
      "name": "dryflower.obj.cleaner.materialmerger.gles"
    },
    {
      "mesh": 0,
      "name": "Object_2"
    }
  ],
  "samplers": [
    {
      "magFilter": 9729,
      "minFilter": 9987,
      "wrapS": 10497,
      "wrapT": 10497
    }
  ],
  "scene": 0,
  "scenes": [
    {
      "name": "Sketchfab_Scene",
      "nodes": [
        0
      ]
    }
  ],
  "textures": [
    {
      "sampler": 0,
      "source": 0
    }
  ]
}
