{
  "accessors": [
    {
      "bufferView": 2,
      "componentType": 5126,
      "count": 65532,
      "max": [
        0.03540100157260895,
        0.056967999786138535,
        0.19359199702739716
      ],
      "min": [
        -0.017239000648260117,
        -0.03612900152802467,
        -0.000371000001905486
      ],
      "type": "VEC3"
    },
    {
      "bufferView": 2,
      "byteOffset": 786384,
      "componentType": 5126,
      "count": 65532,
      "max": [
        0.9999721050262451,
        0.9998952150344849,
        0.9998906850814819
      ],
      "min": [
        -0.9999969005584717,
        -0.9999513626098633,
        -0.9999550580978394
      ],
      "type": "VEC3"
    },
    {
      "bufferView": 3,
      "componentType": 5126,
      "count": 65532,
      "max": [
        0.9999973773956299,
        0.999579131603241,
        0.9999999403953552,
        1.0
      ],
      "min": [
        -0.9999807476997375,
        -0.9994153380393982,
        -1.0,
        -1.0
      ],
      "type": "VEC4"
    },
    {
      "bufferView": 1,
      "componentType": 5126,
      "count": 65532,
      "max": [
        0.9997320175170898,
        0.9929199814796448
      ],
      "min": [
        0.00024399999529123306,
        0.00024900000425986946
      ],
      "type": "VEC2"
    },
    {
      "bufferView": 0,
      "componentType": 5125,
      "count": 235635,
      "type": "SCALAR"
    },
    {
      "bufferView": 2,
      "byteOffset": 1572768,
      "componentType": 5126,
      "count": 65534,
      "max": [
        0.04527600109577179,
        0.05838099867105484,
        0.1933020055294037
      ],
      "min": [
        -0.03992199897766113,
        -0.019231000915169716,
        0.045285001397132874
      ],
      "type": "VEC3"
    },
    {
      "bufferView": 2,
      "byteOffset": 2359176,
      "componentType": 5126,
      "count": 65534,
      "max": [
        0.9999783039093018,
        0.999981164932251,
        0.9999752044677734
      ],
      "min": [
        -0.9999922513961792,
        -0.9999973773956299,
        -0.9999493360519409
      ],
      "type": "VEC3"
    },
    {
      "bufferView": 3,
      "byteOffset": 1048512,
      "componentType": 5126,
      "count": 65534,
      "max": [
        0.9999852180480957,
        0.9998002052307129,
        1.0,
        1.0
      ],
      "min": [
        -0.9999968409538269,
        -0.9996989965438843,
        -0.9999998211860657,
        -1.0
      ],
      "type": "VEC4"
    },
    {
      "bufferView": 1,
      "byteOffset": 524256,
      "componentType": 5126,
      "count": 65534,
      "max": [
        0.999754011631012,
        0.9909669756889343
      ],
      "min": [
        0.00024399999529123306,
        0.00025499999173916876
      ],
      "type": "VEC2"
    },
    {
      "bufferView": 0,
      "byteOffset": 942540,
      "componentType": 5125,
      "count": 219336,
      "type": "SCALAR"
    },
    {
      "bufferView": 2,
      "byteOffset": 3145584,
      "componentType": 5126,
      "count": 65532,
      "max": [
        0.05788800120353699,
        0.0481720007956028,
        0.17791900038719177
      ],
      "min": [
        0.010720999911427498,
        -0.04074300080537796,
        0.1327580064535141
      ],
      "type": "VEC3"
    },
    {
      "bufferView": 2,
      "byteOffset": 3931968,
      "componentType": 5126,
      "count": 65532,
      "max": [
        0.9999303817749023,
        0.9999610185623169,
        0.9999934434890747
      ],
      "min": [
        -0.9999362230300903,
        -0.9999805688858032,
        -0.9999889135360718
      ],
      "type": "VEC3"
    },
    {
      "bufferView": 3,
      "byteOffset": 2097056,
      "componentType": 5126,
      "count": 65532,
      "max": [
        0.9999994039535522,
        0.9999819993972778,
        0.9999960064888,
        1.0
      ],
      "min": [
        -0.9999959468841553,
        -0.9998602271080017,
        -1.0,
        -1.0
      ],
      "type": "VEC4"
    },
    {
      "bufferView": 1,
      "byteOffset": 1048528,
      "componentType": 5126,
      "count": 65532,
      "max": [
        0.9996749758720398,
        0.9890140295028687
      ],
      "min": [
        0.00024399999529123306,
        0.00024500000290572643
      ],
      "type": "VEC2"
    },
    {
      "bufferView": 0,
      "byteOffset": 1819884,
      "componentType": 5125,
      "count": 207504,
      "type": "SCALAR"
    },
    {
      "bufferView": 2,
      "byteOffset": 4718352,
      "componentType": 5126,
      "count": 65532,
      "max": [
        0.026885999366641045,
        0.0440949983894825,
        0.18441200256347656
      ],
      "min": [
        -0.030162999406456947,
        -0.0476129986345768,
        0.08518999814987183
      ],
      "type": "VEC3"
    },
    {
      "bufferView": 2,
      "byteOffset": 5504736,
      "componentType": 5126,
      "count": 65532,
      "max": [
        0.9999932050704956,
        0.999976634979248,
        0.9999778270721436
      ],
      "min": [
        -0.9999405145645142,
        -0.9999463558197021,
        -0.9998785257339478
      ],
      "type": "VEC3"
    },
    {
      "bufferView": 3,
      "byteOffset": 3145568,
      "componentType": 5126,
      "count": 65532,
      "max": [
        0.9999920129776001,
        0.9997808933258057,
        1.0,
        1.0
      ],
      "min": [
        -0.9999995231628418,
        -0.9996116161346436,
        -0.9999997615814209,
        -1.0
      ],
      "type": "VEC4"
    },
    {
      "bufferView": 1,
      "byteOffset": 1572784,
      "componentType": 5126,
      "count": 65532,
      "max": [
        0.9996830224990845,
        0.9880369901657104
      ],
      "min": [
        0.00024399999529123306,
        0.0002469999890308827
      ],
      "type": "VEC2"
    },
    {
      "bufferView": 0,
      "byteOffset": 2649900,
      "componentType": 5125,
      "count": 210891,
      "type": "SCALAR"
    },
    {
      "bufferView": 2,
      "byteOffset": 6291120,
      "componentType": 5126,
      "count": 65532,
      "max": [
        0.020809000357985497,
        0.0568929985165596,
        0.16239799559116364
      ],
      "min": [
        -0.03683700039982796,
        -0.01674100011587143,
        0.0675790011882782
      ],
      "type": "VEC3"
    },
    {
      "bufferView": 2,
      "byteOffset": 7077504,
      "componentType": 5126,
      "count": 65532,
      "max": [
        0.9999912977218628,
        0.999977707862854,
        0.9999767541885376
      ],
      "min": [
        -0.9999922513961792,
        -0.9999860525131226,
        -0.9999866485595703
      ],
      "type": "VEC3"
    },
    {
      "bufferView": 3,
      "byteOffset": 4194080,
      "componentType": 5126,
      "count": 65532,
      "max": [
        0.9999853372573853,
        0.9997520446777344,
        0.9999997615814209,
        1.0
      ],
      "min": [
        -0.9999889731407166,
        -0.99972003698349,
        -0.9999997019767761,
        -1.0
      ],
      "type": "VEC4"
    },
    {
      "bufferView": 1,
      "byteOffset": 2097040,
      "componentType": 5126,
      "count": 65532,
      "max": [
        0.9997429847717285,
        0.9890140295028687
      ],
      "min": [
        0.00024399999529123306,
        0.0002610000083222985
      ],
      "type": "VEC2"
    },
    {
      "bufferView": 0,
      "byteOffset": 3493464,
      "componentType": 5125,
      "count": 207720,
      "type": "SCALAR"
    },
    {
      "bufferView": 2,
      "byteOffset": 7863888,
      "componentType": 5126,
      "count": 65532,
      "max": [
        0.02966899983584881,
        0.05454299971461296,
        0.16863399744033813
      ],
      "min": [
        -0.04972599819302559,
        -0.015131000429391861,
        0.06784199923276901
      ],
      "type": "VEC3"
    },
    {
      "bufferView": 2,
      "byteOffset": 8650272,
      "componentType": 5126,
      "count": 65532,
      "max": [
        0.9999828338623047,
        0.9998893737792969,
        0.9999828338623047
      ],
      "min": [
        -0.9999527931213379,
        -0.9998518228530884,
        -0.9999834299087524
      ],
      "type": "VEC3"
    },
    {
      "bufferView": 3,
      "byteOffset": 5242592,
      "componentType": 5126,
      "count": 65532,
      "max": [
        0.9999927878379822,
        0.9992775917053223,
        0.9999997019767761,
        1.0
      ],
      "min": [
        -0.9999995231628418,
        -0.9993370175361633,
        -1.0,
        -1.0
      ],
      "type": "VEC4"
    },
    {
      "bufferView": 1,
      "byteOffset": 2621296,
      "componentType": 5126,
      "count": 65532,
      "max": [
        0.9997469782829285,
        0.9880369901657104
      ],
      "min": [
        0.00024399999529123306,
        0.0002460000105202198
      ],
      "type": "VEC2"
    },
    {
      "bufferView": 0,
      "byteOffset": 4324344,
      "componentType": 5125,
      "count": 203706,
      "type": "SCALAR"
    },
    {
      "bufferView": 2,
      "byteOffset": 9436656,
      "componentType": 5126,
      "count": 65532,
      "max": [
        0.04545300081372261,
        0.049639999866485596,
        0.1615229994058609
      ],
      "min": [
        -0.04813100025057793,
        -0.04104800149798393,
        0.06263899803161621
      ],
      "type": "VEC3"
    },
    {
      "bufferView": 2,
      "byteOffset": 10223040,
      "componentType": 5126,
      "count": 65532,
      "max": [
        0.9999648332595825,
        0.9999979734420776,
        0.9999500513076782
      ],
      "min": [
        -0.9998036026954651,
        -0.9999911785125732,
        -0.9999750852584839
      ],
      "type": "VEC3"
    },
    {
      "bufferView": 3,
      "byteOffset": 6291104,
      "componentType": 5126,
      "count": 65532,
      "max": [
        0.999991238117218,
        0.999931812286377,
        1.0,
        1.0
      ],
      "min": [
        -0.9999884963035583,
        -0.9996519088745117,
        -1.0,
        -1.0
      ],
      "type": "VEC4"
    },
    {
      "bufferView": 1,
      "byteOffset": 3145552,
      "componentType": 5126,
      "count": 65532,
      "max": [
        0.9997400045394897,
        0.9929199814796448
      ],
      "min": [
        0.00024399999529123306,
        0.0002479999966453761
      ],
      "type": "VEC2"
    },
    {
      "bufferView": 0,
      "byteOffset": 5139168,
      "componentType": 5125,
      "count": 195120,
      "type": "SCALAR"
    },
    {
      "bufferView": 2,
      "byteOffset": 11009424,
      "componentType": 5126,
      "count": 8046,
      "max": [
        0.022796999663114548,
        0.0480940006673336,
        0.1826920062303543
      ],
      "min": [
        -0.031052999198436737,
        -0.0476129986345768,
        0.045531999319791794
      ],
      "type": "VEC3"
    },
    {
      "bufferView": 2,
      "byteOffset": 11105976,
      "componentType": 5126,
      "count": 8046,
      "max": [
        0.9995631575584412,
        0.999493420124054,
        0.9998429417610168
      ],
      "min": [
        -0.9999550580978394,
        -0.9998252987861633,
        -0.9996067881584167
      ],
      "type": "VEC3"
    },
    {
      "bufferView": 3,
      "byteOffset": 7339616,
      "componentType": 5126,
      "count": 8046,
      "max": [
        0.999967634677887,
        0.9996294975280762,
        0.9999999403953552,
        1.0
      ],
      "min": [
        -0.9998349547386169,
        -0.9974094033241272,
        -0.9999843239784241,
        -1.0
      ],
      "type": "VEC4"
    },
    {
      "bufferView": 1,
      "byteOffset": 3669808,
      "componentType": 5126,
      "count": 8046,
      "max": [
        0.9995350241661072,
        0.9890140295028687
      ],
      "min": [
        0.00024399999529123306,
        0.00024399999529123306
      ],
      "type": "VEC2"
    },
    {
      "bufferView": 0,
      "byteOffset": 5919648,
      "componentType": 5125,
      "count": 19908,
      "type": "SCALAR"
    }
  ],
  "asset": {
    "extras": {
      "author": "Eisuke Komatsu (https://sketchfab.com/kayaaku)",
      "license": "CC-BY-4.0 (http://creativecommons.org/licenses/by/4.0/)",
      "source": "https://sketchfab.com/3d-models/dry-flower-9c5bea0d812a459297b805ff7658b7e0",
      "title": "Dry flower"
    },
    "generator": "Sketchfab-12.78.0",
    "version": "2.0"
  },
  "bufferViews": [
    {
      "buffer": 0,
      "byteLength": 5999280,
      "name": "floatBufferViews",
      "target": 34963
    },
    {
      "buffer": 0,
      "byteLength": 3734176,
      "byteOffset": 5999280,
      "byteStride": 8,
      "name": "floatBufferViews",
      "target": 34962
    },
    {
      "buffer": 0,
      "byteLength": 11202528,
      "byteOffset": 9733456,
      "byteStride": 12,
      "name": "floatBufferViews",
      "target": 34962
    },
    {
      "buffer": 0,
      "byteLength": 7468352,
      "byteOffset": 20935984,
      "byteStride": 16,
      "name": "floatBufferViews",
      "target": 34962
    }
  ],
  "buffers": [
    {
      "byteLength": 28404336,
      "uri": "scene.bin"
    }
  ],
  "images": [
    {
      "uri": "textures/model_u1_v1_baseColor.jpeg"
    },
    {
      "uri": "textures/model_u1_v1_normal.png"
    }
  ],
  "materials": [
    {
      "doubleSided": true,
      "name": "model_u1_v1",
      "normalTexture": {
        "index": 1
      },
      "pbrMetallicRoughness": {
        "baseColorTexture": {
          "index": 0
        },
        "metallicFactor": 0.0
      }
    }
  ],
  "meshes": [
    {
      "name": "Object_0",
      "primitives": [
        {
          "attributes": {
            "NORMAL": 1,
            "POSITION": 0,
            "TANGENT": 2,
            "TEXCOORD_0": 3
          },
          "indices": 4,
          "material": 0,
          "mode": 4
        }
      ]
    },
    {
      "name": "Object_1",
      "primitives": [
        {
          "attributes": {
            "NORMAL": 6,
            "POSITION": 5,
            "TANGENT": 7,
            "TEXCOORD_0": 8
          },
          "indices": 9,
          "material": 0,
          "mode": 4
        }
      ]
    },
    {
      "name": "Object_2",
      "primitives": [
        {
          "attributes": {
            "NORMAL": 11,
            "POSITION": 10,
            "TANGENT": 12,
            "TEXCOORD_0": 13
          },
          "indices": 14,
          "material": 0,
          "mode": 4
        }
      ]
    },
    {
      "name": "Object_3",
      "primitives": [
        {
          "attributes": {
            "NORMAL": 16,
            "POSITION": 15,
            "TANGENT": 17,
            "TEXCOORD_0": 18
          },
          "indices": 19,
          "material": 0,
          "mode": 4
        }
      ]
    },
    {
      "name": "Object_4",
      "primitives": [
        {
          "attributes": {
            "NORMAL": 21,
            "POSITION": 20,
            "TANGENT": 22,
            "TEXCOORD_0": 23
          },
          "indices": 24,
          "material": 0,
          "mode": 4
        }
      ]
    },
    {
      "name": "Object_5",
      "primitives": [
        {
          "attributes": {
            "NORMAL": 26,
            "POSITION": 25,
            "TANGENT": 27,
            "TEXCOORD_0": 28
          },
          "indices": 29,
          "material": 0,
          "mode": 4
        }
      ]
    },
    {
      "name": "Object_6",
      "primitives": [
        {
          "attributes": {
            "NORMAL": 31,
            "POSITION": 30,
            "TANGENT": 32,
            "TEXCOORD_0": 33
          },
          "indices": 34,
          "material": 0,
          "mode": 4
        }
      ]
    },
    {
      "name": "Object_7",
      "primitives": [
        {
          "attributes": {
            "NORMAL": 36,
            "POSITION": 35,
            "TANGENT": 37,
            "TEXCOORD_0": 38
          },
          "indices": 39,
          "material": 0,
          "mode": 4
        }
      ]
    }
  ],
  "nodes": [
    {
      "children": [
        1
      ],
      "matrix": [
        1.0,
        0.0,
        0.0,
        0.0,
        0.0,
        2.220446049250313e-16,
        -1.0,
        0.0,
        0.0,
        1.0,
        2.220446049250313e-16,
        0.0,
        0.0,
        0.0,
        0.0,
        1.0
      ],
      "name": "Sketchfab_model"
    },
    {
      "children": [
        2,
        3,
        4,
        5,
        6,
        7,
        8,
        9
      ],
      "name": "model.obj.cleaner.materialmerger.gles"
    },
    {
      "mesh": 0,
      "name": "Object_2"
    },
    {
      "mesh": 1,
      "name": "Object_3"
    },
    {
      "mesh": 2,
      "name": "Object_4"
    },
    {
      "mesh": 3,
      "name": "Object_5"
    },
    {
      "mesh": 4,
      "name": "Object_6"
    },
    {
      "mesh": 5,
      "name": "Object_7"
    },
    {
      "mesh": 6,
      "name": "Object_8"
    },
    {
      "mesh": 7,
      "name": "Object_9"
    }
  ],
  "samplers": [
    {
      "magFilter": 9729,
      "minFilter": 9987,
      "wrapS": 10497,
      "wrapT": 10497
    }
  ],
  "scene": 0,
  "scenes": [
    {
      "name": "Sketchfab_Scene",
      "nodes": [
        0
      ]
    }
  ],
  "textures": [
    {
      "sampler": 0,
      "source": 0
    },
    {
      "sampler": 0,
      "source": 1
    }
  ]
}
