{
    "asset" : {
        "generator" : "Khronos glTF Blender I/O v3.2.43",
        "version" : "2.0"
    },
    "extensionsUsed" : [
        "KHR_materials_unlit"
    ],
    "scene" : 0,
    "scenes" : [
        {
            "name" : "Scene",
            "nodes" : [
                4
            ]
        }
    ],
    "nodes" : [
        {
            "mesh" : 0,
            "name" : "Rosa12K_Rosa12K_u0_v0_0"
        },
        {
            "children" : [
                0
            ],
            "name" : "Rosa12K"
        },
        {
            "children" : [
                1
            ],
            "name" : "RootNode"
        },
        {
            "children" : [
                2
            ],
            "name" : "Rosa12K.fbx",
            "rotation" : [
                -1,
                0,
                0,
                5.587935447692871e-09
            ]
        },
        {
            "children" : [
                3
            ],
            "name" : "Sketchfab_model",
            "rotation" : [
                0.6052805781364441,
                -0.025733718648552895,
                0.141355499625206,
                0.7829379439353943
            ],
            "scale" : [
                0.07951372861862183,
                0.07951373606920242,
                0.07951372861862183
            ]
        }
    ],
    "materials" : [
        {
            "doubleSided" : true,
            "extensions" : {
                "KHR_materials_unlit" : {}
            },
            "name" : "Rosa12K_u0_v0",
            "pbrMetallicRoughness" : {
                "baseColorTexture" : {
                    "index" : 0,
                    "texCoord" : 0
                },
                "metallicFactor" : 0,
                "roughnessFactor" : 0.9
            }
        }
    ],
    "meshes" : [
        {
            "name" : "Rosa12K_Rosa12K_u0_v0_0",
            "primitives" : [
                {
                    "attributes" : {
                        "POSITION" : 0,
                        "NORMAL" : 1,
                        "TEXCOORD_0" : 2
                    },
                    "indices" : 3,
                    "material" : 0
                }
            ]
        }
    ],
    "textures" : [
        {
            "sampler" : 0,
            "source" : 0
        }
    ],
    "images" : [
        {
            "mimeType" : "image/jpeg",
            "name" : "Rosa12K_u0_v0_baseColor",
            "uri" : "Rosa12K_u0_v0_baseColor.jpg"
        }
    ],
    "accessors" : [
        {
            "bufferView" : 0,
            "componentType" : 5126,
            "count" : 13448,
            "max" : [
                8.78352165222168,
                11.165399551391602,
                18.73157501220703
            ],
            "min" : [
                -18.201257705688477,
                -9.396956443786621,
                0.03333652392029762
            ],
            "type" : "VEC3"
        },
        {
            "bufferView" : 1,
            "componentType" : 5126,
            "count" : 13448,
            "type" : "VEC3"
        },
        {
            "bufferView" : 2,
            "componentType" : 5126,
            "count" : 13448,
            "type" : "VEC2"
        },
        {
            "bufferView" : 3,
            "componentType" : 5123,
            "count" : 35694,
            "type" : "SCALAR"
        }
    ],
    "bufferViews" : [
        {
            "buffer" : 0,
            "byteLength" : 161376,
            "byteOffset" : 0
        },
        {
            "buffer" : 0,
            "byteLength" : 161376,
            "byteOffset" : 161376
        },
        {
            "buffer" : 0,
            "byteLength" : 107584,
            "byteOffset" : 322752
        },
        {
            "buffer" : 0,
            "byteLength" : 71388,
            "byteOffset" : 430336
        }
    ],
    "samplers" : [
        {
            "magFilter" : 9729,
            "minFilter" : 9987
        }
    ],
    "buffers" : [
        {
            "byteLength" : 501724,
            "uri" : "scene.bin"
        }
    ]
}
