{
  "accessors": [
    {
      "bufferView": 2,
      "componentType": 5126,
      "count": 65532,
      "max": [
        0.21441130340099335,
        0.1817690134048462,
        0.44513773918151855
      ],
      "min": [
        -0.0952613353729248,
        -0.04037761688232422,
        0.03924063220620155
      ],
      "type": "VEC3"
    },
    {
      "bufferView": 2,
      "byteOffset": 786384,
      "componentType": 5126,
      "count": 65532,
      "max": [
        0.9999496936798096,
        0.9999938011169434,
        0.9999651908874512
      ],
      "min": [
        -0.9999922513961792,
        -0.9999905824661255,
        -0.9990624189376831
      ],
      "type": "VEC3"
    },
    {
      "bufferView": 1,
      "componentType": 5126,
      "count": 65532,
      "max": [
        0.9997478723526001,
        0.9987791776657104
      ],
      "min": [
        0.000244140625,
        0.0002494050422683358
      ],
      "type": "VEC2"
    },
    {
      "bufferView": 1,
      "byteOffset": 524256,
      "componentType": 5126,
      "count": 65532,
      "max": [
        0.9997478723526001,
        0.9987791776657104
      ],
      "min": [
        0.000244140625,
        0.0002494050422683358
      ],
      "type": "VEC2"
    },
    {
      "bufferView": 0,
      "componentType": 5125,
      "count": 224196,
      "type": "SCALAR"
    },
    {
      "bufferView": 2,
      "byteOffset": 1572768,
      "componentType": 5126,
      "count": 65534,
      "max": [
        0.2234373688697815,
        0.2002965211868286,
        0.4924003481864929
      ],
      "min": [
        -0.1188691034913063,
        -0.04036527872085571,
        0.0005107757169753313
      ],
      "type": "VEC3"
    },
    {
      "bufferView": 2,
      "byteOffset": 2359176,
      "componentType": 5126,
      "count": 65534,
      "max": [
        0.9999955892562866,
        0.9999969005584717,
        0.9999619722366333
      ],
      "min": [
        -0.9999958276748657,
        -0.999929666519165,
        -0.9999653100967407
      ],
      "type": "VEC3"
    },
    {
      "bufferView": 1,
      "byteOffset": 1048512,
      "componentType": 5126,
      "count": 65534,
      "max": [
        0.9997303485870361,
        0.9636229276657104
      ],
      "min": [
        0.000244140625,
        0.00025041832122951746
      ],
      "type": "VEC2"
    },
    {
      "bufferView": 1,
      "byteOffset": 1572784,
      "componentType": 5126,
      "count": 65534,
      "max": [
        0.9997303485870361,
        0.9636229276657104
      ],
      "min": [
        0.000244140625,
        0.00025041832122951746
      ],
      "type": "VEC2"
    },
    {
      "bufferView": 0,
      "byteOffset": 896784,
      "componentType": 5125,
      "count": 209391,
      "type": "SCALAR"
    },
    {
      "bufferView": 2,
      "byteOffset": 3145584,
      "componentType": 5126,
      "count": 26357,
      "max": [
        0.1146392971277237,
        0.09104275703430176,
        0.34921175241470337
      ],
      "min": [
        -0.09296215325593948,
        -0.04023326560854912,
        0.13200487196445465
      ],
      "type": "VEC3"
    },
    {
      "bufferView": 2,
      "byteOffset": 3461868,
      "componentType": 5126,
      "count": 26357,
      "max": [
        0.9999926090240479,
        0.999787449836731,
        0.9997124671936035
      ],
      "min": [
        -0.9996185302734375,
        -0.9999227523803711,
        -0.9994248151779175
      ],
      "type": "VEC3"
    },
    {
      "bufferView": 1,
      "byteOffset": 2097056,
      "componentType": 5126,
      "count": 26357,
      "max": [
        0.999649703502655,
        0.9147948026657104
      ],
      "min": [
        0.000244140625,
        0.0002451135078445077
      ],
      "type": "VEC2"
    },
    {
      "bufferView": 1,
      "byteOffset": 2307912,
      "componentType": 5126,
      "count": 26357,
      "max": [
        0.999649703502655,
        0.9147948026657104
      ],
      "min": [
        0.000244140625,
        0.0002451135078445077
      ],
      "type": "VEC2"
    },
    {
      "bufferView": 0,
      "byteOffset": 1734348,
      "componentType": 5125,
      "count": 65187,
      "type": "SCALAR"
    }
  ],
  "asset": {
    "extras": {
      "author": "Nicolas Diolez (https://sketchfab.com/nicolasdiolez)",
      "license": "CC-BY-4.0 (http://creativecommons.org/licenses/by/4.0/)",
      "source": "https://sketchfab.com/3d-models/vase-of-dried-flowers-photogrammetry-9b4039619bca402abd89e0765910567b",
      "title": "Vase of dried flowers - photogrammetry"
    },
    "generator": "Sketchfab-12.68.0",
    "version": "2.0"
  },
  "bufferViews": [
    {
      "buffer": 0,
      "byteLength": 1995096,
      "name": "floatBufferViews",
      "target": 34963
    },
    {
      "buffer": 0,
      "byteLength": 2518768,
      "byteOffset": 1995096,
      "byteStride": 8,
      "name": "floatBufferViews",
      "target": 34962
    },
    {
      "buffer": 0,
      "byteLength": 3778152,
      "byteOffset": 4513864,
      "byteStride": 12,
      "name": "floatBufferViews",
      "target": 34962
    }
  ],
  "buffers": [
    {
      "byteLength": 8292016,
      "uri": "scene.bin"
    }
  ],
  "extensionsUsed": [
    "KHR_materials_unlit"
  ],
  "images": [
    {
      "uri": "textures/dried_flowers_baseColor.jpeg"
    }
  ],
  "materials": [
    {
      "doubleSided": true,
      "extensions": {
        "KHR_materials_unlit": {}
      },
      "name": "dried_flowers",
      "pbrMetallicRoughness": {
        "baseColorTexture": {
          "index": 0
        },
        "metallicFactor": 0.0
      }
    }
  ],
  "meshes": [
    {
      "name": "dried flowers_dried flowers_0",
      "primitives": [
        {
          "attributes": {
            "NORMAL": 1,
            "POSITION": 0,
            "TEXCOORD_0": 2,
            "TEXCOORD_1": 3
          },
          "indices": 4,
          "material": 0,
          "mode": 4
        }
      ]
    },
    {
      "name": "dried flowers_dried flowers_0",
      "primitives": [
        {
          "attributes": {
            "NORMAL": 6,
            "POSITION": 5,
            "TEXCOORD_0": 7,
            "TEXCOORD_1": 8
          },
          "indices": 9,
          "material": 0,
          "mode": 4
        }
      ]
    },
    {
      "name": "dried flowers_dried flowers_0",
      "primitives": [
        {
          "attributes": {
            "NORMAL": 11,
            "POSITION": 10,
            "TEXCOORD_0": 12,
            "TEXCOORD_1": 13
          },
          "indices": 14,
          "material": 0,
          "mode": 4
        }
      ]
    }
  ],
  "nodes": [
    {
      "children": [
        1
      ],
      "matrix": [
        1.0,
        0.0,
        0.0,
        0.0,
        0.0,
        2.220446049250313e-16,
        -1.0,
        0.0,
        0.0,
        1.0,
        2.220446049250313e-16,
        0.0,
        0.0,
        0.0,
        0.0,
        1.0
      ],
      "name": "Sketchfab_model"
    },
    {
      "children": [
        2
      ],
      "matrix": [
        1.0,
        0.0,
        0.0,
        0.0,
        0.0,
        0.0,
        1.0,
        0.0,
        0.0,
        -1.0,
        0.0,
        0.0,
        0.0,
        0.0,
        0.0,
        1.0
      ],
      "name": "driedflowers.fbx"
    },
    {
      "children": [
        3
      ],
      "name": "RootNode"
    },
    {
      "children": [
        4,
        5,
        6
      ],
      "matrix": [
        100.0,
        0.0,
        0.0,
        0.0,
        0.0,
        -1.629206793918314e-05,
        -99.99999999999868,
        0.0,
        0.0,
        99.99999999999868,
        -1.629206793918314e-05,
        0.0,
        0.0,
        0.0,
        0.0,
        1.0
      ],
      "name": "dried flowers"
    },
    {
      "mesh": 0,
      "name": "dried flowers_dried flowers_0"
    },
    {
      "mesh": 1,
      "name": "dried flowers_dried flowers_0"
    },
    {
      "mesh": 2,
      "name": "dried flowers_dried flowers_0"
    }
  ],
  "samplers": [
    {
      "magFilter": 9729,
      "minFilter": 9987,
      "wrapS": 10497,
      "wrapT": 10497
    }
  ],
  "scene": 0,
  "scenes": [
    {
      "name": "Sketchfab_Scene",
      "nodes": [
        0
      ]
    }
  ],
  "textures": [
    {
      "sampler": 0,
      "source": 0
    }
  ]
}
